<svg xmlns="http://www.w3.org/2000/svg" viewBox="0 0 128 128">
  <defs>
    <linearGradient id="card" x1="26" y1="18" x2="104" y2="112" gradientUnits="userSpaceOnUse">
      <stop stop-color="#e0f2fe"/>
      <stop offset=".55" stop-color="#38bdf8"/>
      <stop offset="1" stop-color="#0369a1"/>
    </linearGradient>
    <filter id="shadow" x="-20%" y="-20%" width="140%" height="150%">
      <feDropShadow dx="0" dy="6" stdDeviation="4" flood-color="#0f172a" flood-opacity=".34"/>
    </filter>
  </defs>
  <ellipse cx="65" cy="113" rx="36" ry="8" fill="#0f172a" opacity=".18"/>
  <g filter="url(#shadow)" transform="rotate(-7 64 64)">
    <rect x="28" y="24" width="72" height="86" rx="14" fill="url(#card)" stroke="#075985" stroke-width="4"/>
    <rect x="40" y="36" width="48" height="12" rx="5" fill="#f8fafc" opacity=".9"/>
    <path d="M42 59h44M42 71h28M42 83h38" stroke="#075985" stroke-width="5" stroke-linecap="round" opacity=".65"/>
    <circle cx="51" cy="96" r="8" fill="#f8fafc"/>
    <circle cx="78" cy="94" r="8" fill="#f8fafc"/>
    <circle cx="52" cy="96" r="3" fill="#0f172a"/>
    <circle cx="77" cy="94" r="3" fill="#0f172a"/>
    <path d="M57 107c7 4 15 3 20-2" stroke="#0f172a" stroke-width="4" stroke-linecap="round" fill="none"/>
    <path d="M18 71h18M95 52h20" stroke="#fbbf24" stroke-width="6" stroke-linecap="round"/>
  </g>
</svg>
