<svg xmlns="http://www.w3.org/2000/svg" viewBox="0 0 128 128">
  <defs>
    <radialGradient id="cloak" cx="45%" cy="28%" r="75%">
      <stop stop-color="#e2e8f0"/>
      <stop offset=".55" stop-color="#64748b"/>
      <stop offset="1" stop-color="#1e293b"/>
    </radialGradient>
    <filter id="shadow" x="-20%" y="-20%" width="140%" height="150%">
      <feDropShadow dx="0" dy="7" stdDeviation="4" flood-color="#020617" flood-opacity=".34"/>
    </filter>
  </defs>
  <ellipse cx="64" cy="114" rx="34" ry="8" fill="#020617" opacity=".22"/>
  <g filter="url(#shadow)">
    <path d="M31 111c2-40 9-80 34-87 24 7 32 47 34 87-16 9-51 9-68 0Z" fill="url(#cloak)" stroke="#0f172a" stroke-width="4"/>
    <path d="M41 61c8-9 37-10 47 0" fill="none" stroke="#cbd5e1" stroke-width="5" stroke-linecap="round" opacity=".55"/>
    <circle cx="52" cy="71" r="7" fill="#f8fafc"/>
    <circle cx="77" cy="71" r="7" fill="#f8fafc"/>
    <circle cx="53" cy="72" r="3" fill="#020617"/>
    <circle cx="76" cy="72" r="3" fill="#020617"/>
    <path d="M53 92h27" stroke="#020617" stroke-width="5" stroke-linecap="round"/>
    <path d="M25 44h22M82 44h21" stroke="#cbd5e1" stroke-width="6" stroke-linecap="round"/>
    <path d="M22 32l19 24M106 32 87 56" stroke="#94a3b8" stroke-width="4" stroke-linecap="round"/>
  </g>
</svg>
