<svg xmlns="http://www.w3.org/2000/svg" viewBox="0 0 128 128">
  <defs>
    <linearGradient id="paper" x1="30" y1="16" x2="100" y2="116" gradientUnits="userSpaceOnUse">
      <stop stop-color="#fff7ed"/>
      <stop offset=".65" stop-color="#fed7aa"/>
      <stop offset="1" stop-color="#f97316"/>
    </linearGradient>
    <filter id="shadow" x="-20%" y="-20%" width="140%" height="150%">
      <feDropShadow dx="0" dy="7" stdDeviation="4" flood-color="#431407" flood-opacity=".3"/>
    </filter>
  </defs>
  <ellipse cx="64" cy="114" rx="38" ry="8" fill="#431407" opacity=".18"/>
  <g filter="url(#shadow)">
    <path d="M32 18h50l18 18v73c0 8-6 13-14 13H42c-8 0-14-5-14-13V32c0-8 5-14 4-14Z" fill="url(#paper)" stroke="#9a3412" stroke-width="4"/>
    <path d="M82 19v20h19" fill="#ffedd5" stroke="#9a3412" stroke-width="4" stroke-linejoin="round"/>
    <path d="M44 48h34M44 62h40M44 76h29" stroke="#9a3412" stroke-width="5" stroke-linecap="round" opacity=".65"/>
    <path d="M43 93l10 10 21-27" fill="none" stroke="#16a34a" stroke-width="7" stroke-linecap="round" stroke-linejoin="round"/>
    <circle cx="53" cy="37" r="6" fill="#fff"/>
    <circle cx="75" cy="37" r="6" fill="#fff"/>
    <circle cx="54" cy="38" r="2.5" fill="#111827"/>
    <circle cx="74" cy="38" r="2.5" fill="#111827"/>
  </g>
</svg>
