<svg xmlns="http://www.w3.org/2000/svg" viewBox="0 0 128 128">
  <defs>
    <radialGradient id="body" cx="42%" cy="30%" r="72%">
      <stop stop-color="#dcfce7"/>
      <stop offset=".55" stop-color="#22c55e"/>
      <stop offset="1" stop-color="#166534"/>
    </radialGradient>
    <filter id="shadow" x="-20%" y="-20%" width="140%" height="150%">
      <feDropShadow dx="0" dy="6" stdDeviation="4" flood-color="#052e16" flood-opacity=".32"/>
    </filter>
  </defs>
  <ellipse cx="64" cy="113" rx="34" ry="8" fill="#052e16" opacity=".2"/>
  <g filter="url(#shadow)">
    <path d="M21 73c5-35 24-54 48-49 24 4 38 27 32 55-5 25-24 39-46 35-24-4-38-20-34-41Z" fill="url(#body)" stroke="#14532d" stroke-width="4"/>
    <path d="M20 78c-13-29 5-51 29-52M108 82c20-23 8-51-16-58" fill="none" stroke="#fbbf24" stroke-width="5" stroke-linecap="round"/>
    <path d="M35 104l-10 14M83 107l6 15" stroke="#14532d" stroke-width="7" stroke-linecap="round"/>
    <circle cx="54" cy="62" r="7" fill="#fff"/>
    <circle cx="80" cy="67" r="7" fill="#fff"/>
    <circle cx="55" cy="63" r="3" fill="#111827"/>
    <circle cx="79" cy="68" r="3" fill="#111827"/>
    <path d="M54 87c8 7 19 8 29 2" stroke="#052e16" stroke-width="4" stroke-linecap="round" fill="none"/>
    <path d="M42 44c10-7 28-8 42 2" stroke="#bbf7d0" stroke-width="5" stroke-linecap="round" opacity=".65"/>
  </g>
</svg>
