<svg xmlns="http://www.w3.org/2000/svg" viewBox="0 0 128 128" width="128" height="128">
  <defs>
    <radialGradient id="bossFace" cx="42%" cy="35%" r="72%">
      <stop offset="0%" stop-color="#fc8181"/>
      <stop offset="55%" stop-color="#e53e3e"/>
      <stop offset="100%" stop-color="#9b2c2c"/>
    </radialGradient>
    <linearGradient id="horn" x1="0" y1="0" x2="0" y2="1">
      <stop offset="0%" stop-color="#fbd38d"/>
      <stop offset="100%" stop-color="#c05621"/>
    </linearGradient>
  </defs>
  <ellipse cx="64" cy="118" rx="36" ry="8" fill="#000000" opacity="0.25"/>
  <circle cx="64" cy="66" r="44" fill="#e53e3e" opacity="0.16"/>
  <path d="M40 40 C30 26 30 16 38 12 C40 24 48 30 52 38 Z" fill="url(#horn)" stroke="#9c4221" stroke-width="1.5"/>
  <path d="M88 40 C98 26 98 16 90 12 C88 24 80 30 76 38 Z" fill="url(#horn)" stroke="#9c4221" stroke-width="1.5"/>
  <circle cx="64" cy="66" r="36" fill="url(#bossFace)" stroke="#822727" stroke-width="2.5"/>
  <ellipse cx="50" cy="48" rx="12" ry="8" fill="#ffffff" opacity="0.3"/>
  <polygon points="40,30 88,30 78,22 50,22" fill="#1a1a1a"/>
  <rect x="50" y="30" width="28" height="9" rx="2" fill="#2d2d2d"/>
  <circle cx="64" cy="26" r="2.5" fill="#f6ad37"/>
  <line x1="64" y1="26" x2="82" y2="31" stroke="#f6ad37" stroke-width="1.5"/>
  <circle cx="83" cy="32" r="2" fill="#f6ad37"/>
  <ellipse cx="52" cy="64" rx="9" ry="10" fill="#ffffff"/>
  <ellipse cx="76" cy="64" rx="9" ry="10" fill="#ffffff"/>
  <circle cx="53" cy="66" r="4.5" fill="#f6ad37"/>
  <circle cx="77" cy="66" r="4.5" fill="#f6ad37"/>
  <circle cx="53" cy="66" r="2" fill="#1a202c"/>
  <circle cx="77" cy="66" r="2" fill="#1a202c"/>
  <path d="M43 54 L61 60" stroke="#742a2a" stroke-width="3.5" stroke-linecap="round"/>
  <path d="M85 54 L67 60" stroke="#742a2a" stroke-width="3.5" stroke-linecap="round"/>
  <path d="M50 86 Q64 78 78 86" stroke="#742a2a" stroke-width="3" fill="none" stroke-linecap="round"/>
  <polygon points="54,84 57,92 60,85" fill="#ffffff"/>
  <polygon points="68,85 71,92 74,84" fill="#ffffff"/>
</svg>
