<svg xmlns="http://www.w3.org/2000/svg" viewBox="0 0 128 128">
  <defs>
    <linearGradient id="sheet" x1="23" y1="24" x2="104" y2="108" gradientUnits="userSpaceOnUse">
      <stop stop-color="#ffffff"/>
      <stop offset=".7" stop-color="#cbd5e1"/>
      <stop offset="1" stop-color="#64748b"/>
    </linearGradient>
    <filter id="shadow" x="-20%" y="-20%" width="140%" height="150%">
      <feDropShadow dx="0" dy="7" stdDeviation="4" flood-color="#0f172a" flood-opacity=".28"/>
    </filter>
  </defs>
  <ellipse cx="65" cy="114" rx="39" ry="8" fill="#0f172a" opacity=".17"/>
  <g filter="url(#shadow)">
    <path d="M28 31c18-14 47-15 69 1-18 11-21 28-8 49-20 17-49 19-68 2 14-18 11-36 7-52Z" fill="url(#sheet)" stroke="#475569" stroke-width="4" stroke-linejoin="round"/>
    <path d="M42 47h34M40 61h48M44 75h33" stroke="#64748b" stroke-width="4" stroke-linecap="round"/>
    <path d="M15 50c14 2 21-4 26-15M17 86c16-4 21-12 24-25M108 40c-15 5-20 14-20 28M111 86c-13-2-20-8-25-19" fill="none" stroke="#e2e8f0" stroke-width="6" stroke-linecap="round"/>
    <circle cx="54" cy="88" r="6" fill="#fff"/>
    <circle cx="78" cy="86" r="6" fill="#fff"/>
    <circle cx="55" cy="88" r="2.5" fill="#111827"/>
    <circle cx="77" cy="86" r="2.5" fill="#111827"/>
    <path d="M55 102c8 4 17 4 25-1" stroke="#111827" stroke-width="4" stroke-linecap="round" fill="none"/>
  </g>
</svg>
