<svg xmlns="http://www.w3.org/2000/svg" viewBox="0 0 128 128">
  <defs>
    <linearGradient id="steel" x1="28" y1="13" x2="101" y2="114" gradientUnits="userSpaceOnUse">
      <stop stop-color="#f8fafc"/>
      <stop offset=".28" stop-color="#94a3b8"/>
      <stop offset=".58" stop-color="#334155"/>
      <stop offset="1" stop-color="#020617"/>
    </linearGradient>
    <linearGradient id="violet" x1="42" y1="20" x2="97" y2="113" gradientUnits="userSpaceOnUse">
      <stop stop-color="#f5d0fe"/>
      <stop offset=".42" stop-color="#a855f7"/>
      <stop offset="1" stop-color="#581c87"/>
    </linearGradient>
    <linearGradient id="blade" x1="2" y1="113" x2="57" y2="78" gradientUnits="userSpaceOnUse">
      <stop stop-color="#f5d0fe"/>
      <stop offset=".45" stop-color="#c084fc"/>
      <stop offset="1" stop-color="#6d28d9"/>
    </linearGradient>
    <filter id="glow" x="-40%" y="-40%" width="180%" height="180%">
      <feGaussianBlur stdDeviation="2.8" result="blur"/>
      <feMerge>
        <feMergeNode in="blur"/>
        <feMergeNode in="SourceGraphic"/>
      </feMerge>
    </filter>
    <filter id="shadow" x="-25%" y="-25%" width="150%" height="160%">
      <feDropShadow dx="0" dy="7" stdDeviation="4" flood-color="#020617" flood-opacity=".45"/>
    </filter>
  </defs>
  <ellipse cx="70" cy="117" rx="42" ry="8" fill="#020617" opacity=".26"/>
  <g filter="url(#shadow)">
    <path d="M86 18l9-12 5 18 15 6-14 8-2 17-13-12-18 3 8-16-8-15 18 3Z" fill="url(#steel)" stroke="#020617" stroke-width="3"/>
    <path d="M50 18 41 7l-5 17-15 6 14 8 2 17 13-12 18 3-8-16 8-15-18 3Z" fill="url(#steel)" stroke="#020617" stroke-width="3"/>
    <path d="M82 20c5 5 8 12 8 20M45 20c-5 5-8 12-8 20" stroke="#a855f7" stroke-width="6" stroke-linecap="round" filter="url(#glow)"/>
    <path d="M34 56c4-20 16-34 31-34 18 0 30 14 34 34l-8 31H43l-9-31Z" fill="url(#steel)" stroke="#020617" stroke-width="4" stroke-linejoin="round"/>
    <path d="M51 31h27l9 14-13 12H55L42 45l9-14Z" fill="#0f172a" stroke="#cbd5e1" stroke-width="3"/>
    <path d="M57 45h15l7 18-14 13-15-13 7-18Z" fill="url(#violet)" stroke="#f5d0fe" stroke-width="2" filter="url(#glow)"/>
    <path d="M48 50c7 5 25 5 33 0" stroke="#a855f7" stroke-width="3" stroke-linecap="round" filter="url(#glow)"/>
    <circle cx="56" cy="42" r="4" fill="#c084fc" filter="url(#glow)"/>
    <circle cx="73" cy="42" r="4" fill="#c084fc" filter="url(#glow)"/>
    <path d="M24 67 7 111l43-28 10-19-16-9-20 12Z" fill="url(#blade)" stroke="#581c87" stroke-width="4" stroke-linejoin="round" filter="url(#glow)"/>
    <path d="M16 103 48 77" stroke="#f5d0fe" stroke-width="4" stroke-linecap="round"/>
    <path d="M87 62 113 43l10 37-24 31-23-18 11-31Z" fill="url(#steel)" stroke="#020617" stroke-width="4" stroke-linejoin="round"/>
    <path d="M96 62 114 54l3 22-16 22-14-10 9-26Z" fill="url(#violet)" stroke="#f5d0fe" stroke-width="2" filter="url(#glow)"/>
    <path d="M45 83 35 110h20l8-23M82 83l12 27H74l-8-23" fill="#1e293b" stroke="#020617" stroke-width="4" stroke-linejoin="round"/>
    <path d="M34 111 22 122h26l6-12M94 111l12 11H80l-6-12" fill="url(#steel)" stroke="#020617" stroke-width="4" stroke-linejoin="round"/>
    <path d="M43 62 25 72M86 62l18 10" stroke="#cbd5e1" stroke-width="10" stroke-linecap="round"/>
    <path d="M45 62 28 73M84 62l17 10" stroke="#020617" stroke-width="5" stroke-linecap="round"/>
    <path d="M62 18 53 8h23l-9 10" fill="#f8fafc" stroke="#020617" stroke-width="3" stroke-linejoin="round"/>
    <path d="M61 16h8l5 9-9 5-9-5 5-9Z" fill="url(#violet)" filter="url(#glow)"/>
  </g>
</svg>
