<svg xmlns="http://www.w3.org/2000/svg" viewBox="0 0 128 128">
  <defs>
    <radialGradient id="body" cx="42%" cy="30%" r="70%">
      <stop offset="0" stop-color="#fff1f2"/>
      <stop offset="0.58" stop-color="#f9a8d4"/>
      <stop offset="1" stop-color="#be185d"/>
    </radialGradient>
    <filter id="shadow" x="-20%" y="-20%" width="140%" height="150%">
      <feDropShadow dx="0" dy="6" stdDeviation="4" flood-color="#111827" flood-opacity=".35"/>
    </filter>
  </defs>
  <ellipse cx="64" cy="112" rx="34" ry="8" fill="#111827" opacity=".18"/>
  <g filter="url(#shadow)">
    <path d="M26 82c0-28 18-50 43-50 21 0 36 18 36 41 0 24-18 43-42 43-22 0-37-14-37-34Z" fill="url(#body)" stroke="#831843" stroke-width="4"/>
    <path d="M33 67c9-18 28-26 48-22" fill="none" stroke="#ffe4e6" stroke-width="6" stroke-linecap="round" opacity=".65"/>
    <circle cx="51" cy="73" r="8" fill="#fff"/>
    <circle cx="79" cy="70" r="8" fill="#fff"/>
    <circle cx="53" cy="75" r="3" fill="#111827"/>
    <circle cx="77" cy="72" r="3" fill="#111827"/>
    <path d="M50 93c9 7 20 7 29-1" fill="none" stroke="#831843" stroke-width="4" stroke-linecap="round"/>
    <path d="M22 92l-12 7M103 89l13 5M82 27l7-14M39 31l-8-12" stroke="#f9a8d4" stroke-width="5" stroke-linecap="round"/>
  </g>
</svg>
