<svg xmlns="http://www.w3.org/2000/svg" viewBox="0 0 128 128">
  <defs>
    <radialGradient id="bell" cx="42%" cy="28%" r="72%">
      <stop stop-color="#fee2e2"/>
      <stop offset=".5" stop-color="#ef4444"/>
      <stop offset="1" stop-color="#7f1d1d"/>
    </radialGradient>
    <filter id="shadow" x="-20%" y="-20%" width="140%" height="150%">
      <feDropShadow dx="0" dy="7" stdDeviation="4" flood-color="#450a0a" flood-opacity=".36"/>
    </filter>
  </defs>
  <ellipse cx="64" cy="114" rx="38" ry="8" fill="#450a0a" opacity=".22"/>
  <g filter="url(#shadow)">
    <path d="M35 84c0-23 7-40 20-47V27c0-6 4-11 10-11s10 5 10 11v10c13 7 20 24 20 47l10 16H25l10-16Z" fill="url(#bell)" stroke="#7f1d1d" stroke-width="5" stroke-linejoin="round"/>
    <path d="M47 101c4 11 30 11 34 0" fill="#fecaca" stroke="#7f1d1d" stroke-width="4"/>
    <circle cx="53" cy="68" r="7" fill="#fff"/>
    <circle cx="78" cy="68" r="7" fill="#fff"/>
    <circle cx="55" cy="69" r="3" fill="#111827"/>
    <circle cx="77" cy="69" r="3" fill="#111827"/>
    <path d="M53 87c9 6 20 5 28-2" stroke="#450a0a" stroke-width="4" stroke-linecap="round" fill="none"/>
    <path d="M28 30 14 17M100 30l14-13M17 70H5M123 70h-12" stroke="#facc15" stroke-width="6" stroke-linecap="round"/>
    <path d="M64 43v18l13 9" stroke="#fee2e2" stroke-width="5" stroke-linecap="round" stroke-linejoin="round"/>
  </g>
</svg>
