<svg xmlns="http://www.w3.org/2000/svg" viewBox="0 0 128 128" width="128" height="128">
  <defs>
    <linearGradient id="tankMetal" x1="0" y1="0" x2="1" y2="0">
      <stop offset="0%" stop-color="#64748b"/>
      <stop offset="25%" stop-color="#cbd5e1"/>
      <stop offset="50%" stop-color="#f1f5f9"/>
      <stop offset="75%" stop-color="#94a3b8"/>
      <stop offset="100%" stop-color="#475569"/>
    </linearGradient>
    <linearGradient id="tankRim" x1="0" y1="0" x2="0" y2="1">
      <stop offset="0%" stop-color="#e2e8f0"/>
      <stop offset="100%" stop-color="#94a3b8"/>
    </linearGradient>
  </defs>
  <ellipse cx="64" cy="118" rx="34" ry="8" fill="#000000" opacity="0.22"/>
  <rect x="46" y="100" width="9" height="16" rx="4" fill="#475569"/>
  <rect x="73" y="100" width="9" height="16" rx="4" fill="#475569"/>
  <path d="M38 44 L90 44 L86 106 L42 106 Z" fill="url(#tankMetal)" stroke="#475569" stroke-width="2"/>
  <rect x="40" y="58" width="48" height="4" fill="#64748b" opacity="0.5"/>
  <rect x="41" y="88" width="46" height="4" fill="#64748b" opacity="0.5"/>
  <ellipse cx="64" cy="44" rx="26" ry="8" fill="url(#tankRim)" stroke="#64748b" stroke-width="2"/>
  <ellipse cx="64" cy="44" rx="20" ry="5" fill="#334155"/>
  <circle cx="44" cy="52" r="2.2" fill="#cbd5e1" stroke="#64748b" stroke-width="0.6"/>
  <circle cx="84" cy="52" r="2.2" fill="#cbd5e1" stroke="#64748b" stroke-width="0.6"/>
  <circle cx="44" cy="98" r="2.2" fill="#cbd5e1" stroke="#64748b" stroke-width="0.6"/>
  <circle cx="84" cy="98" r="2.2" fill="#cbd5e1" stroke="#64748b" stroke-width="0.6"/>
  <rect x="52" y="46" width="5" height="58" rx="2.5" fill="#ffffff" opacity="0.4"/>
  <ellipse cx="55" cy="72" rx="6" ry="5" fill="#1a202c"/>
  <ellipse cx="73" cy="72" rx="6" ry="5" fill="#1a202c"/>
  <circle cx="55" cy="72" r="2.6" fill="#f6ad37"/>
  <circle cx="73" cy="72" r="2.6" fill="#f6ad37"/>
  <path d="M48 64 L62 68" stroke="#1a202c" stroke-width="2.5" stroke-linecap="round"/>
  <path d="M80 64 L66 68" stroke="#1a202c" stroke-width="2.5" stroke-linecap="round"/>
</svg>
