<svg xmlns="http://www.w3.org/2000/svg" viewBox="0 0 128 128" width="128" height="128">
  <defs>
    <radialGradient id="canBody" cx="40%" cy="32%" r="78%">
      <stop offset="0%" stop-color="#90cdf4"/>
      <stop offset="55%" stop-color="#38bdf8"/>
      <stop offset="100%" stop-color="#0369a1"/>
    </radialGradient>
  </defs>
  <ellipse cx="66" cy="116" rx="32" ry="8" fill="#000000" opacity="0.2"/>
  <path d="M58 40 Q64 22 84 30 L82 38 Q70 34 66 46 Z" fill="#0ea5e9" stroke="#0369a1" stroke-width="1.5"/>
  <path d="M40 64 L14 52 L12 60 L38 76 Z" fill="url(#canBody)" stroke="#0369a1" stroke-width="1.5"/>
  <ellipse cx="13" cy="56" rx="4" ry="8" fill="#cbd5e1" stroke="#64748b" stroke-width="1.5" transform="rotate(-20 13 56)"/>
  <path d="M44 48 L88 48 L84 102 L48 102 Z" fill="url(#canBody)" stroke="#0369a1" stroke-width="2"/>
  <ellipse cx="66" cy="48" rx="22" ry="6" fill="#7dd3fc" stroke="#0369a1" stroke-width="1.5"/>
  <rect x="54" y="52" width="5" height="46" rx="2.5" fill="#ffffff" opacity="0.45"/>
  <path d="M10 70 q-3 5 0 8 q3 -3 0 -8 z" fill="#7dd3fc"/>
  <path d="M18 78 q-2 4 0 6 q2 -2 0 -6 z" fill="#7dd3fc"/>
  <ellipse cx="59" cy="70" rx="5.5" ry="7" fill="#ffffff"/>
  <ellipse cx="75" cy="70" rx="5.5" ry="7" fill="#ffffff"/>
  <circle cx="60" cy="71" r="2.8" fill="#1a202c"/>
  <circle cx="76" cy="71" r="2.8" fill="#1a202c"/>
  <circle cx="59" cy="70" r="1" fill="#ffffff"/>
  <circle cx="75" cy="70" r="1" fill="#ffffff"/>
  <path d="M61 80 Q67 85 73 80" stroke="#075985" stroke-width="2.2" fill="none" stroke-linecap="round"/>
</svg>
