<svg xmlns="http://www.w3.org/2000/svg" viewBox="0 0 128 128" width="128" height="128">
  <defs>
    <radialGradient id="skin" cx="45%" cy="40%" r="65%">
      <stop offset="0%" stop-color="#fde8d8"/>
      <stop offset="100%" stop-color="#f0c0a0"/>
    </radialGradient>
    <linearGradient id="dress" x1="0" y1="0" x2="0" y2="1">
      <stop offset="0%" stop-color="#f56565"/>
      <stop offset="100%" stop-color="#9b2c2c"/>
    </linearGradient>
    <linearGradient id="hair" x1="0" y1="0" x2="0" y2="1">
      <stop offset="0%" stop-color="#4a3728"/>
      <stop offset="100%" stop-color="#2d2016"/>
    </linearGradient>
  </defs>
  <ellipse cx="64" cy="118" rx="34" ry="8" fill="#000000" opacity="0.22"/>
  <path d="M30 118 Q34 90 50 84 L78 84 Q94 90 98 118 Z" fill="url(#dress)" stroke="#822727" stroke-width="2"/>
  <path d="M52 84 L64 96 L76 84" fill="#ffffff" stroke="#cbd5e1" stroke-width="1"/>
  <rect x="57" y="74" width="14" height="14" rx="4" fill="url(#skin)"/>
  <ellipse cx="64" cy="50" rx="30" ry="30" fill="url(#hair)"/>
  <circle cx="64" cy="20" r="11" fill="url(#hair)" stroke="#2d2016" stroke-width="1"/>
  <ellipse cx="64" cy="52" rx="24" ry="26" fill="url(#skin)" stroke="#d9a884" stroke-width="1"/>
  <path d="M40 44 Q44 26 64 26 Q84 26 88 44 Q80 36 64 36 Q48 36 40 44 Z" fill="url(#hair)"/>
  <circle cx="54" cy="52" r="9" fill="#ffffff" opacity="0.25" stroke="#2d2016" stroke-width="2"/>
  <circle cx="76" cy="52" r="9" fill="#ffffff" opacity="0.25" stroke="#2d2016" stroke-width="2"/>
  <line x1="63" y1="52" x2="67" y2="52" stroke="#2d2016" stroke-width="2"/>
  <circle cx="54" cy="52" r="3" fill="#1a202c"/>
  <circle cx="76" cy="52" r="3" fill="#1a202c"/>
  <path d="M46 44 L62 47" stroke="#2d2016" stroke-width="2.5" stroke-linecap="round"/>
  <path d="M82 44 L66 47" stroke="#2d2016" stroke-width="2.5" stroke-linecap="round"/>
  <path d="M57 66 Q64 63 71 66" stroke="#9b2c2c" stroke-width="2.2" fill="none" stroke-linecap="round"/>
  <line x1="86" y1="100" x2="108" y2="62" stroke="#b9825b" stroke-width="3.5" stroke-linecap="round"/>
  <circle cx="108" cy="62" r="3" fill="#e53e3e"/>
</svg>
